<?xml version="1.0" encoding="utf-8"?>
<!-- Generator: Adobe Illustrator 24.3.0, SVG Export Plug-In . SVG Version: 6.00 Build 0)  -->
<svg version="1.1" id="Layer_1" xmlns:v="https://vecta.io/nano"
	 xmlns="http://www.w3.org/2000/svg" xmlns:xlink="http://www.w3.org/1999/xlink" x="0px" y="0px" viewBox="0 0 550 385"
	 style="enable-background:new 0 0 550 385;" xml:space="preserve">
<style type="text/css">
	.st0{fill:#332A23;}
	.st1{fill:#FFFFFF;}
</style>
<g id="Layer_2_1_">
	<g id="Layer_1-2">
		<path class="st0" d="M158.6,192.5c0,64.3,52.1,116.4,116.4,116.4s116.4-52.1,116.4-116.4S339.3,76.1,275,76.1
			S158.6,128.2,158.6,192.5z"/>
		<path class="st1" d="M347.8,126.6c0,0-6.2,9.4-6.3,14.2c-0.1,5.8,3.9,3,6.8-2c0,0-4.6,2.2-4.2-0.7
			C344.6,135.2,345,131.3,347.8,126.6z"/>
		<path class="st1" d="M356.9,158.2c0,0-3.5-8-6.1-7.8c-2.6,0.1-2.5,3,0,4.6c2.5,1.6,6.1,8.7,6.1,10.4c0,0,1.7-12.3,3.6-12.1
			c1.9,0.1,3.8,1.3,4.5-1.7c0.7-3-3.8-1.9-4.2-1.2C360.4,151.1,359.3,151.4,356.9,158.2z"/>
		<path class="st1" d="M367.3,185.3c0,0-8.7,13.9-8.4,20.6c0.3,8.2,6.2,4,10.2-3.4c0,0-6.9,3.5-6.4-0.7
			C363.2,197.7,363.5,192.1,367.3,185.3z"/>
		<path class="st1" d="M325.5,245.2c0,0-5.9,7-5.7,10.4c0.1,4.1,4.1,1.9,6.8-1.8c0,0-4.6,1.8-4.2-0.3S322.9,248.7,325.5,245.2z"/>
		<path class="st1" d="M325.5,195.1c0,0-5.9,7-5.7,10.4c0.1,4.1,4.1,1.9,6.8-1.8c0,0-4.6,1.8-4.2-0.3S322.9,198.5,325.5,195.1z"/>
		<path class="st1" d="M302.4,115.2c0,0-5.8,7-5.7,10.4c0.1,4.1,4.1,1.9,6.8-1.8c0,0-4.6,1.8-4.2-0.3
			C299.5,121.4,299.8,118.6,302.4,115.2z"/>
		<path class="st1" d="M278.2,107c0,0-4.4,7-4.2,10.3c0.2,4.1,3.1,2,5.2-1.7c0,0-3.5,1.7-3.2-0.3C276.1,113.2,276.2,110.4,278.2,107
			z"/>
		<path class="st1" d="M259.5,115.2c0,0-4.4,7-4.2,10.3c0.2,4.1,3.1,2,5.2-1.7c0,0-3.5,1.7-3.2-0.3
			C257.4,121.4,257.5,118.6,259.5,115.2z"/>
		<path class="st1" d="M234.5,103.8c0,0-6.8,11.6-6.6,17.2c0.3,6.9,4.9,3.3,8-2.9c0,0-5.4,2.9-5.1-0.6S231.5,109.4,234.5,103.8z"/>
		<path class="st1" d="M198.1,136.9c0,0-4.9,7.8-4.8,11.6c0.2,4.6,3.5,2.2,5.8-1.9c0,0-3.9,1.9-3.7-0.4
			C195.8,143.9,196,140.8,198.1,136.9z"/>
		<path class="st1" d="M196.2,184.5c0,0-4.9,7.8-4.8,11.6c0.2,4.6,3.5,2.2,5.8-1.9c0,0-3.9,1.9-3.7-0.4
			C193.9,191.4,194.1,188.3,196.2,184.5z"/>
		<path class="st1" d="M193.5,152.5c0,0-9.9,15.6-9.7,23.1c0.4,9.2,7.1,4.4,11.7-3.9c0,0-7.9,3.9-7.4-0.7S189.2,160.2,193.5,152.5z"
			/>
		<path class="st1" d="M304.4,212.1c0,0-5.9,7-5.7,10.4c0.1,4.1,4.1,2,6.8-1.8c0,0-4.6,1.8-4.2-0.3
			C301.5,218.3,301.8,215.5,304.4,212.1z"/>
		<path class="st1" d="M353.3,194.6c0,0-3.1-7.5-5.4-7.3c-2.3,0.1-2.2,2.8,0,4.3c2.2,1.5,5.4,8.1,5.4,9.7c0,0,1.5-11.5,3.2-11.4
			s3.4,1.2,4-1.6c0.6-2.8-3.4-1.8-3.7-1.1S355.5,188.2,353.3,194.6z"/>
		<path class="st1" d="M361.8,223.9c0,0-2-7.8-4.3-8c-2.3-0.2-2.6,2.5-0.6,4.3c1.9,1.8,4.2,8.8,3.9,10.5c0,0,3.2-11.2,4.9-10.8
			c1.6,0.4,3.1,1.7,4.2-1s-3.1-2.2-3.5-1.6C365.8,217.8,364.8,217.9,361.8,223.9z"/>
		<path class="st1" d="M322.2,226.4c0,0-2-7.8-4.3-8c-2.3-0.2-2.6,2.5-0.6,4.3c1.9,1.8,4.2,8.8,3.9,10.5c0,0,3.2-11.2,4.9-10.8
			c1.6,0.4,3.1,1.7,4.2-1c1.1-2.7-3.1-2.2-3.5-1.6C326.2,220.3,325.3,220.5,322.2,226.4z"/>
		<path class="st1" d="M351.5,175.5c0,0,9.1-1.4,7.7,0c-1.4,1.4-7.8,4.3-8.2,4.5s9,1,11.4-0.7s8.8-6.1,6.8-8.2s-12.7-2.5-13.9-2.3
			C354.1,168.9,348.1,174.8,351.5,175.5z"/>
		<path class="st1" d="M338.7,150.9l4.6,9.3c0,0-0.6,1-2.3-1c0,0,0,1.2,2.3,9c2.3,7.8,2.7,20-6.7,24s-12.9-11.8-12.9-11.8h-0.9
			c0,0-2.2,11.7-10.1,12.4c-8,0.8-13.4-6.1-11.7-16c1.7-9.9,1.7-11.4,1.7-11.4s-4.9,9-5.6,13.9c-0.7,4.9-3.6,17.6-11.7,10.3
			c-8.1-7.4-3.2-17.6-3.2-17.6s-1.5,11.5,5.3,14c6.8,2.5,3.5-8.1,11.7-22.1c8.2-14,6.8-2.2,6.8-2.2s-5.8,21.1,2.5,22.7
			c8.2,1.6,12.1-1.4,12.6-7.7c0.4-6.2-2.9-22.7-2.9-22.7l6-7.5c0,0,0,28.1,2.6,31.7c2.6,3.6,4.9,5.1,7.4,5.3s9,1.2,5.8-8.2
			c-2-5.8-3.6-11.8-4.9-17.8L338.7,150.9z"/>
		<path class="st1" d="M334.6,127.8l-5.5-17.5l-2.6,5.5c0,0,6,75.4,4.3,110.6c0,0,4.2-6.7,4.3-17.4c0.1-10.7-3.9-80-4.3-83.5
			L334.6,127.8z"/>
		<path class="st1" d="M314.5,119.3l-5.5-17.5l-2.6,5.5c0,0,6,75.4,4.3,110.6c0,0,4.2-6.7,4.3-17.4s-3.9-80-4.3-83.5L314.5,119.3z"
			/>
		<path class="st1" d="M294.2,114.5L288.7,97l-2.6,5.5c0,0,5.9,75.4,4.3,110.6c0,0,4.2-6.7,4.3-17.4c0.1-10.7-3.9-80-4.3-83.5
			L294.2,114.5z"/>
		<path class="st1" d="M273.3,114.1l-5.5-17.5l-2.6,5.5c0,0,5.9,75.4,4.3,110.6c0,0,4.2-6.7,4.3-17.4c0.1-10.7-3.9-80-4.3-83.5
			L273.3,114.1z"/>
		<path class="st1" d="M317.4,121.7c0,0,4.9,9.8,2,17.4c0,0,5.1-3.2,0-17.4C319.4,121.7,317.1,119,317.4,121.7z"/>
		<path class="st1" d="M275.5,178.5c0,0,4.9,7.8,2,13.8c0,0,5.1-2.5,0-13.8C277.5,178.5,275.2,176.3,275.5,178.5z"/>
		<path class="st1" d="M210.4,181.4c0,0-3.7-7.3-6.2-7.1c-2.5,0.2-2.3,2.9,0.2,4.3s6.3,7.9,6.4,9.5c0,0,1.2-11.6,3-11.5
			c1.8,0.1,3.7,1.1,4.3-1.8s-3.8-1.6-4.1-0.9C213.6,174.6,212.6,174.9,210.4,181.4z"/>
		<path class="st1" d="M216.1,158.6c0,0-1.3-0.7,0-2.7c0,0-3.3,2.6-3.9,6s0.7,5.2,3.9,5.2S221.1,159.3,216.1,158.6z M214.8,164
			c-1.6-0.4,0-2.6,0-2.6C218.4,160.9,216.5,164.4,214.8,164L214.8,164z"/>
		<path class="st1" d="M342.2,217.8c0,0-1.3-0.7,0-2.7c0,0-3.3,2.6-3.9,6c-0.6,3.4,0.7,5.2,3.9,5.2S347.3,218.6,342.2,217.8z
			 M341,223.2c-1.6-0.4,0-2.6,0-2.6C344.5,220.2,342.7,223.7,341,223.2L341,223.2z"/>
		<polygon class="st1" points="339.6,248.1 344,253.5 340,259 335.2,253.5 		"/>
		<polygon class="st1" points="220.3,229.9 224.7,235.2 220.8,240.7 215.9,235.3 		"/>
		<polygon class="st1" points="216.6,201.4 221.6,206.8 217.1,212.3 211.5,206.8 		"/>
		<polygon class="st1" points="225,201.4 230,206.8 225.5,212.3 220,206.8 		"/>
		<polygon class="st1" points="340.8,262.3 338.4,262.3 323.5,270.3 323.5,272.4 324.6,272.4 339.6,265.2 		"/>
		<path class="st1" d="M320.7,264.8c0,0,1,6.8-1.4,7.1S316,271,316,271s-0.7,3.3-3.5,3.2l-2.7-0.1c0,0-1.7-2.2-8.7,5.3
			c-6.9,7.5-15.9,10-20.2,8.8c-4.3-1.2,6.4,0.4,13.2-5.6c6.8-6.1,7.1-7.1,11-10.1c3.9-3,4.2-2.2,5.5-1.7c1.3,0.4,3.9,0.6,4.2-1.9
			s0.7-4.2,1.7-2.9s0.1,3.8,1.3,3.2c1.2-0.6,2-0.4,1.9-3.3S320.7,264.8,320.7,264.8z"/>
		<path class="st1" d="M295.7,268.7c-1.6-2.2-3.9-1.3-6.5,1.7c-2.6,3-4.6,6.7-33.4,13c0,0,5.9,2.7,19.7-2.3
			c13.7-5.1,13.7-6.7,13.7-6.7s2.9,3.7,5.2,1.9S297.3,270.8,295.7,268.7z M294.3,273.6c-1.2,0-3.3-1.2-3.3-1.2s1.7-3.2,3.3-1.6
			C294.3,270.8,295.4,273.6,294.3,273.6L294.3,273.6z"/>
		<path class="st1" d="M353.4,212.7c-1.1-1.7-2.1-3.5-2.8-5.4c-0.7-1.7-1.5-3.5-1.1-5c0,0-4.6,0.1-4,8.8s7.9,24,3.9,24.9
			c-4,0.9-8.7,1.8-9.9-5.7l-1.2,1.3c0,0-1,6.3-3.7,6.3c-2.7,0-5.9,0.5-6.2-1.6s0.9-5.4,0.9-5.4l-1.6,0.5c0,0-3.7,6.6-8.7,7.1
			c-5,0.5-8.5,0-10.6-9.3l-2.2-1.9c0,0-12.1,6.7-11.5,15.8s1.8,8.5,1.8,8.5s-16,5.7-25,12.2c-9,6.4-15.3,6-17.1,4.1
			c-1.7-1.9-2.5-9.9,5.6-18.8c0,0-5.8,4.6-8.1,9.8c-2.3,5.3-1.4,13.2,4.7,15.5c6.1,2.3,22.7-10.1,28.9-12.2s13.5-5.2,20-2.5
			c6.5,2.7,6.3,1.8,6.4-1.7c0.1-3.5-1.4-6.4-5.4-7c-4-0.6-10.8-5.9-8.3-10s6.4-8.8,7.7-4.5c1.4,4.3,2.9,8.4,7.3,8.9
			c4.4,0.5,8.3-0.1,11.6-4.3c0,0,0.9,4,5,4c4.1-0.1,7.3-1.2,8.4-6c0,0,3.6,6.7,8.6,4.9c5-1.8,8.5-6.1,8-11.7
			c-0.6-5.6-4.8-21.8-4.8-21.8L353.4,212.7z"/>
		<path class="st1" d="M305.6,141.3c-1.1-2.5-4.8-4.1-4.8-4.1c-1.7-0.9-1.9,0.8-3.3,4.3c-1.4,3.5,1.2,3.2,2.2,3.9
			c1,0.7-1.8,2.7-6.4,7.7c-3.1,3.3-6.5,6.2-10.2,8.7c11.3-3.9,18.5-15.3,18.5-15.3s1.7,1.2,3.3,0.8
			C306.6,146.9,306.7,143.8,305.6,141.3z M300.7,142.7c-0.7,1.4-1.7,0.4-1.7-0.4c0.1-0.8,1.2-1.7,1.2-1.7
			C301,141,301.1,142,300.7,142.7z M304.5,143.7c-0.2,0.9-0.1,1.8-1.4,1c-1.3-0.8-0.1-1.3,0-2.8
			C303.1,141.9,304.7,142.8,304.5,143.7L304.5,143.7z"/>
		<path class="st1" d="M284.1,147.2c0,0,1.1,4.1-0.6,6c-1.7,1.9-3.2,0.6-3.2,0.6s-0.4,2.6-2.5,2c-2.2-0.6-1.1-6.1-1.1-6.1
			s1.2,5.2,2.4,2.7s0.9-3,0.9-3l0.5-0.8c0,0,0.4,4.1,1.6,3.4C283.3,151.2,283.8,149.2,284.1,147.2z"/>
		<path class="st1" d="M284.4,125.3l-0.4,2.5c0,0-28.2,14.4-30.2,17.2c0,0-0.5-1.9,2.2-4.5C258.8,137.9,284.4,125.3,284.4,125.3z"/>
		<path class="st1" d="M241.6,130.7L241,134c0,0-38.4,19-41.1,22.6c0,0-0.7-2.5,3.1-5.9C206.7,147.2,241.6,130.7,241.6,130.7z"/>
		<path class="st1" d="M255.5,213.1l-0.4,2.4c0,0-26.2,13.7-28.1,16.3c0,0-0.5-1.8,2.1-4.3C231.7,225,255.5,213.1,255.5,213.1z"/>
		<path class="st1" d="M246.8,196.4l-0.9,2.9c0,0-11.5,5.8-13.3,8.4c0,0-0.5-1.8,2.1-4.3S246.8,196.4,246.8,196.4z"/>
		<path class="st1" d="M211.5,212.7l-1.3,2.5c0,0-11.1,6.2-12.9,8.8c0,0-0.5-1.8,2.1-4.3C202,217.3,211.5,212.7,211.5,212.7z"/>
		<path class="st1" d="M268.5,231.4l-0.4,2.4c0,0-26.2,13.7-28.1,16.2c0,0-0.5-1.8,2.1-4.3C244.7,243.3,268.5,231.4,268.5,231.4z"/>
		<path class="st1" d="M288.8,245.2l-0.4,2.4c0,0-26.2,13.7-28.1,16.3c0,0-0.5-1.8,2.1-4.3S288.8,245.2,288.8,245.2z"/>
		<path class="st1" d="M238.9,142.8c0,0,0.2,3.2,0.9,4.3c0.7,1.1,2,6.3-1.3,6.6c-3.3,0.3-3.6-2.3-3.6-2.3s-0.8,4.6-3.2,4.3
			c-2.4-0.3-4.2-2.2-3.2-7.4c0.9-5.2,1.4-1,1.3-0.1s-0.4,3.5,0.7,3.9s3.5,0,3.5-2.2s-0.3-6.2-0.3-6.2l1.1,1.2c0,0,0.4,4.5,1.5,4.8
			c1.1,0.3,3,1,2.2-0.9C237.9,147,237.4,142.1,238.9,142.8z"/>
		<path class="st1" d="M239,229.6c0,0-20.7,24.1-9.4,29.8c11.3,5.8,15.2-16.5,46.6-20.9c0,0,13.2-2,14.2-8.9s0-15.8,0-15.8l4.3-4.9
			c0,0-0.5,15.6-1.2,19.5c-0.7,3.9-0.9,10.7-8.1,13.7s-18.7,1.2-31.7,11c-13,9.8-17.5,16.5-25,13S218.9,248.2,239,229.6z"/>
		<path class="st1" d="M252.9,185.5c0-0.4,0-0.8,0-1.2c0.1-9.3-3.6-69.2-4-72.2l3.5,1.9l-5.1-15.2l-2.4,4.8c0,0,4.5,53.4,4.2,86.1
			l-0.2,0.3c0,0,0.1,0.9,0.2,2.5c0,2.4-0.1,4.7-0.2,6.9c0,0,0.2-0.2,0.4-0.7c0,2-0.1,3.9-0.4,5.9c-0.9,6.4-13.1,8.2-13.1,8.2
			c-29,4.1-32.6,24.7-43,19.3c-10.4-5.3,8.7-27.5,8.7-27.5c-18.6,17.2-16.4,30.6-9.5,33.8s11.1-2.9,23.1-12
			c12-9.1,22.6-7.3,29.2-10.1s6.9-9.1,7.5-12.7C252.5,199.9,252.9,185.5,252.9,185.5L252.9,185.5z"/>
		<path class="st1" d="M244.2,271l-3.2-0.6c0,0,2.3-6.4,4.3-4.3c2,2,4.2,5.2-1,9.7c-5.2,4.6-5.5,3.1-5.5,3.1S248.6,270.3,244.2,271z
			"/>
		<path class="st1" d="M201.6,133.1c0,0,9.7-3.2,9.8-1.2s-6.6,3.2-9,4.3c-1.3,0.6-2.4,1.4-3.2,2.5c0,0,5.6-1.2,7.4-0.9
			c1.9,0.3,11.4-2.6,12.6-7.2c1.2-4.6,0-4.9,0-4.9s-12-2.2-13.6-0.4C204,127.1,198.8,133.1,201.6,133.1z"/>
		<path class="st1" d="M309.2,201.4c-1.9-1.2-32.1-7.4-41.1-7.4s-11.6,3.5-12.3,8.3s3.5,7.4,8,10.8c4.5,3.4,1.5,3.5,1.5,3.5
			c-2.7,1.2-26.5,17.6-32.9,24.4c-6.3,6.8-18.2,13.3-25,6c-6.8-7.4,12.6-32,12.6-32c-18.9,18.9-22.4,38.2-10.8,43.2
			c11.6,5.1,23.4-7.7,26.2-11.1c2.7-3.5,12.7-10.6,20.6-17.2c7.8-6.7,14.6-8.5,14.6-8.5c1.9,7.6,8.2,8.9,8.2,8.9
			c4.3-7.4,0-12.4,0-12.4l28.5-11.3C307.1,202,311.1,202.6,309.2,201.4z M290.6,206.8c-7.3,1.2-17.3,5.9-17.3,5.9s-8.4-8-10.7-8.4
			c-2.3-0.4-3.3-1.7,0-2c3.3-0.3,18.8-0.4,24.4,1C292.7,204.7,297.9,205.6,290.6,206.8L290.6,206.8z"/>
		<path class="st1" d="M240.7,171.8c0,0-2-11.1,5.1-14.3c7.1-3.2,41.8,7.9,41.8,7.9l-3.2,6.4c0,0-3.4-1-4.7,0
			c-1.3,1-10.4,7.7-23.7,11.1c-13.3,3.5-16.7-0.7-18.6-6.1s-2.1-9-4.9-7.8c-2.8,1.2-10.1,10.3-3.4,14.3c6.8,4,12.1,4,12.1,7.1
			c0,3,0,8.4-2.9,7.8c-2.9-0.6-2.5-8.4-12.7-5.4c-10.3,3-20,10.8-24.2,14c-4.2,3.1-10.4,5.4-14.5,4.3c-4.1-1.1-16.3-11,6.4-33.1
			c0,0-17.8,23.4-6.3,27.1c11.5,3.6,11.4-8.2,36.9-18.4c0,0-2.7-10.6,2.2-17c4.9-6.4,7.1-10.7,9.1-8.3s1.3,9.4,7.4,13.7
			c6.1,4.3,17.1,0.3,17.1,0.3l13.2-6.5c0,0-17.1-6.3-22-6.6C246,162.1,241.3,166.1,240.7,171.8z"/>
	</g>
</g>
</svg>
